<?xml version="1.0" standalone="no"?>
<!DOCTYPE svg PUBLIC "-//W3C//DTD SVG 20010904//EN"
 "http://www.w3.org/TR/2001/REC-SVG-20010904/DTD/svg10.dtd">
<svg version="1.0" xmlns="http://www.w3.org/2000/svg"
 width="592.000000pt" height="751.000000pt" viewBox="0 0 592.000000 751.000000"
 preserveAspectRatio="xMidYMid meet">

<g transform="translate(0.000000,751.000000) scale(0.100000,-0.100000)"
fill="#000000" stroke="none">
<path d="M5420 7103 c0 -7 -6 -13 -13 -13 -6 0 -49 -24 -95 -54 -46 -30 -86
-56 -90 -58 -4 -2 -68 -43 -142 -92 -223 -147 -582 -382 -830 -544 -200 -130
-200 -130 -200 -150 0 -9 15 -34 33 -55 l32 -39 75 50 c41 27 136 89 210 137
177 115 390 255 568 373 83 54 149 91 157 88 13 -5 15 -398 15 -3085 l0 -3079
39 -31 c21 -17 41 -31 43 -31 3 0 43 -25 89 -55 46 -30 90 -55 96 -55 7 0 13
-6 13 -12 0 -12 13 6 41 59 7 13 16 23 21 23 29 0 -6 33 -89 85 -52 33 -103
68 -113 79 -18 18 -19 138 -18 3106 0 2958 1 3089 18 3107 10 10 61 45 113 78
83 52 118 85 89 85 -5 0 -14 10 -21 23 -28 53 -41 71 -41 60z"/>
<path d="M2315 6831 c-167 -41 -293 -121 -398 -253 -52 -66 -113 -190 -131
-271 -29 -123 -17 -310 26 -407 10 -24 15 -33 60 -121 13 -24 61 -82 109 -129
157 -157 354 -226 568 -200 46 6 92 15 102 20 10 6 32 10 50 10 27 0 46 -13
115 -80 74 -72 104 -94 104 -72 0 8 -27 89 -39 117 -5 11 -14 39 -22 63 -12
41 -11 43 12 60 13 9 58 51 99 92 78 79 138 181 177 300 26 83 23 303 -5 387
-61 182 -195 341 -353 421 -156 79 -320 100 -474 63z m-123 -628 c29 -26 24
-84 -10 -116 -15 -15 -39 -27 -53 -27 -78 1 -108 130 -36 160 29 12 76 4 99
-17z m340 -6 c28 -36 23 -81 -13 -111 -38 -33 -69 -33 -103 -1 -42 39 -32 115
17 135 32 14 80 3 99 -23z m340 0 c28 -36 23 -81 -13 -111 -35 -30 -60 -33
-94 -10 -76 50 -31 164 60 149 17 -3 38 -15 47 -28z"/>
<path d="M4894 6532 c-151 -101 -345 -228 -564 -370 -85 -55 -166 -109 -178
-119 l-24 -18 0 -2355 c0 -1295 1 -2384 1 -2420 l1 -65 108 -71 c131 -88 382
-251 562 -368 74 -49 154 -102 178 -118 24 -16 49 -27 57 -24 13 5 15 382 13
3007 -2 1991 -6 3003 -13 3005 -5 2 -69 -36 -141 -84z m-10 -2836 c8 -33 6
-827 -2 -848 -6 -16 -16 -12 -75 27 l-67 45 0 353 0 354 23 20 c24 22 98 71
108 72 4 1 10 -10 13 -23z"/>
<path d="M1913 5201 c-136 -33 -237 -116 -297 -241 -29 -61 -31 -73 -31 -176
0 -74 5 -121 14 -140 40 -83 48 -97 66 -113 11 -10 42 -21 70 -24 28 -3 95
-13 150 -22 55 -9 129 -20 165 -24 36 -5 96 -14 135 -21 l69 -13 57 61 c31 33
69 86 85 118 26 54 29 68 29 175 0 79 -4 125 -14 145 -8 16 -21 45 -30 64 -23
50 -129 152 -184 178 -45 21 -96 34 -177 46 -19 2 -67 -3 -107 -13z"/>
<path d="M2767 5113 c-4 -3 -7 -212 -7 -464 0 -343 3 -460 12 -465 6 -4 14 -2
16 4 2 6 44 68 94 138 49 69 86 130 81 134 -4 5 -21 10 -38 12 -29 3 -30 4
-30 58 l0 55 50 0 50 0 5 -38 c3 -21 9 -38 13 -38 21 -2 107 43 107 56 0 18
35 28 81 23 30 -3 34 -7 37 -35 2 -18 8 -33 13 -33 19 0 78 -71 90 -108 17
-55 27 -62 81 -62 l49 0 -3 -52 -3 -53 -43 -3 c-24 -2 -49 2 -57 8 -25 21
-125 -129 -125 -188 0 -43 -14 -62 -46 -62 -26 0 -84 -64 -84 -92 0 -17 17
-18 230 -18 l230 0 5 23 c3 12 4 288 3 612 l-3 590 -401 3 c-220 1 -403 -1
-407 -5z m678 -258 l0 -150 -285 0 -285 0 -3 140 c-1 76 0 145 2 152 4 11 62
13 288 11 l283 -3 0 -150z m20 -325 l0 -55 -50 0 -50 0 -3 44 c-5 66 1 73 55
69 l48 -3 0 -55z m0 -470 c0 -53 -1 -55 -29 -58 -15 -2 -39 -1 -52 2 -21 6
-24 12 -24 55 0 26 3 51 7 55 4 4 28 6 53 4 l45 -3 0 -55z"/>
<path d="M2952 4913 c3 -16 22 -18 201 -21 191 -2 247 4 232 29 -4 5 -96 9
-221 9 -200 0 -215 -1 -212 -17z"/>
<path d="M2950 4815 c0 -13 26 -15 170 -15 144 0 170 2 170 15 0 13 -26 15
-170 15 -144 0 -170 -2 -170 -15z"/>
<path d="M1455 4479 c-55 -8 -91 -24 -148 -65 -85 -61 -142 -136 -206 -269
-58 -122 -57 -118 -91 -225 -16 -52 -34 -108 -39 -125 -6 -16 -13 -49 -17 -72
-4 -24 -10 -43 -15 -43 -5 0 -9 -36 -9 -80 0 -44 4 -80 9 -80 5 0 12 -11 15
-25 8 -32 74 -97 125 -123 22 -12 48 -25 58 -31 10 -5 26 -12 37 -15 15 -5 17
-12 12 -44 -42 -233 -40 -178 -41 -1227 l0 -1000 23 -51 c27 -59 74 -102 141
-126 58 -21 86 -22 142 -3 59 20 114 66 142 118 l22 42 5 900 c5 988 1 919 63
896 l27 -11 0 -879 c0 -483 3 -893 6 -910 11 -52 93 -135 155 -154 64 -21 83
-21 144 0 68 23 136 93 153 156 9 36 12 266 12 975 1 510 5 959 10 997 5 39
16 115 25 170 9 55 20 132 25 170 5 39 11 82 14 95 4 14 11 57 16 95 5 39 16
115 25 170 9 55 19 124 22 153 3 29 9 55 13 57 9 6 66 -41 154 -124 130 -124
188 -170 222 -177 44 -8 104 3 128 24 22 20 231 312 402 561 53 77 58 89 58
138 0 88 -60 148 -148 148 -62 0 -110 -31 -154 -98 -15 -23 -73 -107 -129
-187 -56 -80 -109 -155 -118 -167 -9 -13 -23 -23 -32 -23 -8 0 -79 60 -157
134 -77 73 -157 149 -178 167 -51 49 -89 58 -443 110 -38 6 -113 17 -165 25
-288 44 -265 41 -315 33z"/>
</g>
</svg>
