<?xml version="1.0" standalone="no"?>
<!DOCTYPE svg PUBLIC "-//W3C//DTD SVG 20010904//EN"
 "http://www.w3.org/TR/2001/REC-SVG-20010904/DTD/svg10.dtd">
<svg version="1.0" xmlns="http://www.w3.org/2000/svg"
 width="3275.000000pt" height="3225.000000pt" viewBox="0 0 3275.000000 3225.000000"
 preserveAspectRatio="xMidYMid meet">

<g transform="translate(0.000000,3225.000000) scale(0.100000,-0.100000)"
fill="#000000" stroke="none">
<path d="M24345 31661 c-220 -5 -425 -11 -455 -15 -171 -21 -189 -27 -264 -77
-176 -117 -190 -192 -217 -1119 -6 -228 -13 -417 -15 -419 -2 -2 -151 140
-331 316 -339 331 -420 406 -513 478 -133 102 -245 142 -364 130 -94 -9 -115
-19 -226 -112 -366 -305 -1633 -1563 -2110 -2093 -210 -234 -225 -262 -223
-410 1 -169 91 -291 615 -845 l285 -300 -76 -7 c-42 -5 -301 -15 -576 -23
-316 -10 -528 -20 -575 -29 -198 -36 -290 -131 -336 -346 -38 -178 -39 -240
-39 -1640 0 -1256 1 -1375 18 -1489 42 -297 121 -409 319 -456 81 -19 304 -31
853 -46 242 -6 441 -12 442 -13 1 -1 -149 -157 -333 -346 -435 -445 -523 -550
-574 -686 -22 -61 -27 -192 -10 -256 27 -96 394 -494 1194 -1293 662 -661
1141 -1111 1237 -1161 46 -23 155 -36 217 -24 163 29 302 135 808 616 138 132
262 249 276 262 l25 22 12 -437 c15 -535 27 -749 46 -831 48 -203 153 -274
470 -320 109 -15 243 -17 1485 -17 1418 0 1462 1 1645 42 98 22 166 54 220
104 113 105 126 186 145 909 6 234 13 460 16 502 l6 78 317 -312 c540 -532
660 -621 841 -621 138 0 173 19 400 223 345 311 1673 1624 1919 1900 256 286
311 397 282 566 -23 131 -113 245 -610 772 -152 161 -277 296 -279 301 -1 4
104 11 235 15 679 20 865 27 938 37 294 40 378 161 417 601 19 217 19 2573 0
2763 -46 462 -131 566 -492 594 -63 6 -322 15 -575 21 -253 7 -481 15 -508 19
l-47 6 302 310 c167 171 337 349 379 395 200 225 260 347 245 499 -9 88 -30
128 -127 241 -326 382 -1689 1762 -2024 2049 -289 249 -456 312 -629 238 -92
-39 -210 -139 -491 -417 -154 -152 -327 -320 -384 -374 -100 -94 -105 -97
-114 -74 -5 12 -13 250 -17 528 -5 278 -14 548 -20 600 -23 206 -72 303 -195
384 -70 47 -139 64 -315 76 -185 13 -2018 21 -2545 11z m2076 -1396 c5 -366 8
-407 27 -478 134 -488 561 -803 1050 -773 277 16 536 171 917 548 l191 187
697 -697 698 -698 -37 -34 c-76 -73 -373 -391 -431 -461 -136 -167 -214 -312
-250 -466 -28 -124 -24 -358 9 -484 46 -169 126 -306 254 -430 94 -90 170
-142 319 -215 177 -86 181 -86 645 -93 l405 -6 3 -997 2 -998 -37 -1 c-416 -6
-731 -20 -813 -34 -297 -52 -485 -179 -667 -450 -107 -160 -123 -216 -130
-465 -7 -245 4 -339 51 -435 76 -154 253 -375 524 -656 l151 -156 -694 -693
-694 -694 -136 130 c-335 318 -528 474 -673 542 -93 44 -191 55 -437 50 -237
-6 -288 -16 -399 -84 -244 -150 -394 -314 -464 -508 -62 -171 -82 -353 -82
-763 l0 -283 -1000 0 -1000 0 0 283 c-1 320 -12 515 -35 602 -19 73 -108 256
-166 345 -95 143 -225 256 -380 330 -146 70 -217 84 -424 84 -155 0 -191 -4
-260 -22 -216 -60 -363 -165 -738 -525 l-189 -180 -696 696 -697 697 181 182
c99 101 208 217 242 259 129 161 227 327 279 474 26 76 28 90 28 250 0 146 -3
182 -23 255 -29 105 -97 252 -156 334 -134 187 -365 345 -589 400 -93 23 -302
36 -614 36 l-263 0 0 999 0 999 398 5 c329 3 408 7 462 21 361 93 638 347 743
681 39 124 51 220 44 363 -12 304 -129 498 -569 948 -87 89 -158 166 -158 172
0 5 313 320 697 700 l696 689 176 -177 c234 -235 399 -364 590 -460 160 -81
284 -107 456 -97 381 24 690 235 860 589 86 178 104 322 105 806 l0 262 998
-2 997 -3 6 -400z"/>
<path d="M25200 27653 c-482 -49 -945 -232 -1290 -509 -114 -91 -343 -317
-442 -434 -220 -262 -374 -570 -469 -940 -91 -356 -97 -767 -18 -1124 66 -300
188 -602 326 -808 167 -251 468 -559 722 -740 278 -198 658 -342 1068 -405
156 -24 508 -23 668 1 550 84 1029 334 1431 748 324 334 538 709 644 1126 55
218 64 302 64 587 0 228 -2 276 -23 390 -101 567 -337 1017 -738 1405 -410
398 -922 639 -1485 700 -90 9 -377 12 -458 3z m400 -1008 c494 -67 922 -373
1154 -825 112 -218 138 -335 138 -615 0 -267 -29 -442 -101 -617 -132 -316
-484 -667 -796 -794 -199 -82 -382 -109 -674 -101 -229 6 -302 21 -474 97
-332 148 -606 407 -771 729 -69 135 -112 261 -125 371 -14 110 -14 456 0 557
28 208 169 490 351 702 35 40 108 111 163 157 325 272 733 394 1135 339z"/>
<path d="M9595 26659 c-5199 -6 -6161 -12 -6467 -39 -93 -8 -126 -16 -222 -54
-222 -89 -384 -194 -541 -351 -138 -138 -210 -244 -326 -482 l-99 -201 0
-8114 0 -8113 79 -167 c125 -265 250 -438 428 -593 123 -108 226 -173 419
-267 l169 -82 715 -8 c393 -5 2279 -11 4190 -16 l3475 -7 3 -1497 2 -1498
-897 0 c-940 -1 -1600 -12 -1718 -30 -132 -19 -261 -104 -309 -203 -65 -133
-76 -310 -76 -1292 0 -1006 9 -1147 77 -1249 93 -141 265 -225 463 -226 105
-1 193 -15 245 -40 24 -12 98 -71 165 -133 259 -238 303 -269 435 -303 63 -16
142 -18 785 -21 745 -5 874 0 990 36 96 30 154 74 356 273 l190 188 2780 0
2779 -1 180 -170 c249 -236 300 -271 445 -305 67 -15 153 -18 785 -21 744 -5
868 0 987 37 89 28 154 75 308 225 227 220 230 221 461 234 124 8 171 14 228
34 90 31 160 76 212 136 96 108 107 162 119 591 18 644 7 1619 -20 1814 -19
132 -44 198 -99 258 -69 75 -142 116 -238 134 -118 21 -722 33 -1740 34 l-893
0 0 1500 0 1500 1568 0 c862 1 2629 5 3927 10 l2360 8 160 75 c256 118 386
208 550 378 146 151 226 274 340 519 l73 156 10 4170 c5 2293 8 4172 5 4177
-2 4 -226 7 -497 7 l-494 0 -6 -782 c-3 -431 -8 -2277 -12 -4103 l-5 -3320
-138 -138 -138 -139 -7874 -10 c-8085 -10 -13546 -6 -14349 12 -250 6 -504 15
-565 20 -125 12 -240 48 -280 88 -83 83 -107 374 -126 1529 -15 938 -6 13498
10 13993 14 431 23 519 64 624 29 72 37 83 75 104 90 50 289 74 747 92 549 22
2683 29 8288 30 l5807 0 -2 498 -3 497 -1475 0 c-811 1 -3891 -2 -6845 -6z
m4826 -19259 c7 -952 6 -939 138 -1071 81 -81 144 -118 246 -144 206 -53 461
54 539 225 59 129 75 393 76 1233 l0 527 998 -2 997 -3 3 -1497 2 -1498 -2500
0 -2500 0 0 1500 0 1500 998 -2 997 -3 6 -765z m5997 -3732 l2 -498 -5500 0
-5500 0 0 500 0 500 5498 -2 5497 -3 3 -497z"/>
<path d="M10673 24150 c-401 -51 -821 -234 -1132 -495 -102 -84 -272 -261
-353 -365 -140 -181 -203 -288 -533 -910 -98 -184 -264 -495 -370 -690 -106
-195 -424 -785 -707 -1310 -284 -525 -667 -1236 -853 -1580 -667 -1233 -767
-1464 -795 -1828 -41 -536 195 -1073 625 -1419 205 -165 487 -301 702 -338
221 -39 352 -40 3653 -40 3376 0 3473 1 3692 45 358 73 737 324 979 650 287
384 396 904 283 1350 -59 236 -223 592 -556 1210 -96 179 -526 975 -955 1770
-962 1782 -1087 2015 -1298 2410 -177 332 -237 435 -332 567 -206 287 -492
563 -720 694 -208 119 -476 212 -749 260 -135 23 -460 34 -581 19z m527 -1028
c364 -95 544 -247 795 -672 73 -124 275 -496 1362 -2515 386 -715 821 -1523
968 -1795 474 -877 587 -1126 587 -1295 0 -134 -47 -255 -147 -383 -72 -92
-169 -173 -260 -217 -95 -46 -167 -52 -776 -66 -657 -14 -5818 -6 -6069 10
-225 14 -281 25 -360 68 -93 51 -254 215 -302 308 -113 217 -104 352 41 675
67 147 173 351 461 885 128 237 547 1015 932 1730 1424 2642 1410 2618 1540
2806 155 227 319 350 584 438 145 49 231 61 389 57 115 -3 161 -9 255 -34z"/>
<path d="M10420 20170 l0 -1500 500 0 500 0 -2 1498 -3 1497 -497 3 -498 2 0
-1500z"/>
<path d="M10820 18159 c-25 -5 -79 -25 -120 -46 -307 -151 -373 -563 -128
-804 281 -277 774 -111 840 283 52 318 -273 629 -592 567z"/>
<path d="M15420 21171 l0 -501 1498 -2 1497 -3 3 -4497 2 -4498 -1500 0 -1500
0 -2 1248 -3 1247 -497 3 -498 2 0 -1250 0 -1250 -1500 0 -1500 0 -2 1248 -3
1247 -497 3 -498 2 0 -1250 0 -1250 -1500 0 -1500 0 -2 1248 -3 1247 -497 3
-498 2 0 -1250 0 -1250 -1000 0 -1000 0 0 -500 0 -500 10250 0 10250 0 -2 498
-3 497 -747 3 -748 2 0 2113 c-1 2228 -12 3709 -30 3917 -13 155 -29 209 -83
285 -57 79 -111 111 -228 135 -185 38 -356 42 -2031 47 l-1628 6 0 1076 c-1
1112 -11 1810 -30 1965 -15 126 -38 210 -72 260 -38 59 -146 131 -223 151
-122 30 -377 36 -2022 42 l-1653 6 0 -502z m6998 -6753 l2 -2748 -1500 0
-1500 0 0 2750 0 2750 1498 -2 1497 -3 3 -2747z"/>
</g>
</svg>
