<?xml version="1.0" standalone="no"?>
<!DOCTYPE svg PUBLIC "-//W3C//DTD SVG 20010904//EN"
 "http://www.w3.org/TR/2001/REC-SVG-20010904/DTD/svg10.dtd">
<svg version="1.0" xmlns="http://www.w3.org/2000/svg"
 width="2617.000000pt" height="2592.000000pt" viewBox="0 0 2617.000000 2592.000000"
 preserveAspectRatio="xMidYMid meet">

<g transform="translate(0.000000,2592.000000) scale(0.100000,-0.100000)"
fill="#000000" stroke="none">
<path d="M9590 24773 c-701 -40 -1497 -192 -2070 -396 -793 -283 -1569 -713
-2222 -1233 -409 -326 -811 -722 -1144 -1129 -949 -1156 -1524 -2575 -1666
-4110 -20 -219 -17 -992 5 -1220 70 -713 252 -1503 482 -2090 428 -1092 1178
-2170 2020 -2905 930 -812 2087 -1409 3273 -1689 505 -120 1440 -225 1837
-206 706 32 1336 138 2072 349 210 60 323 86 377 86 33 0 38 -5 74 -68 82
-140 194 -356 495 -947 170 -335 393 -772 495 -969 269 -522 412 -834 399
-869 -6 -17 -84 -39 -232 -67 -326 -62 -851 -246 -1186 -416 -142 -72 -323
-189 -444 -287 -107 -87 -277 -263 -354 -367 -71 -95 -182 -315 -206 -405 -43
-168 -40 -635 5 -825 38 -158 162 -380 304 -544 165 -191 446 -376 738 -486
201 -75 187 -74 1063 -75 812 -2 949 -8 1175 -50 284 -54 662 -181 923 -311
319 -159 501 -301 785 -609 192 -207 282 -302 862 -900 251 -259 545 -564 655
-680 249 -263 484 -498 511 -513 17 -9 42 -1 155 51 185 84 1704 844 2264
1132 253 130 822 420 1265 645 774 392 981 499 1193 617 l97 54 0 40 c0 46
-33 182 -83 344 -19 61 -154 488 -300 950 -387 1223 -471 1500 -536 1760 -94
374 -144 758 -186 1425 -47 736 -184 1224 -540 1925 -331 652 -644 1107 -993
1447 -217 210 -388 346 -527 416 -138 69 -406 134 -555 133 -100 0 -139 -8
-534 -115 -310 -84 -363 -83 -631 4 -82 27 -187 58 -233 70 -563 141 -1204 15
-1655 -328 -32 -24 -102 -82 -154 -128 -125 -110 -141 -114 -281 -84 -242 53
-328 59 -466 35 -105 -18 -129 -27 -330 -123 -123 -59 -169 -76 -204 -76 -44
-1 -46 1 -75 49 -50 85 -203 384 -257 504 -48 107 -50 114 -35 137 27 41 134
162 290 329 283 301 430 472 622 725 308 406 532 770 759 1235 427 875 654
1737 755 2865 18 199 16 668 -5 885 -84 904 -229 1560 -486 2205 -554 1389
-1431 2539 -2560 3356 -1205 872 -2540 1354 -4000 1444 -149 9 -662 11 -800 3z
m590 -993 c377 -16 668 -51 1035 -126 1392 -284 2609 -973 3539 -2004 969
-1074 1496 -2267 1665 -3775 46 -408 48 -760 5 -1135 -163 -1446 -640 -2584
-1525 -3645 -150 -180 -348 -385 -372 -385 -22 0 -66 57 -123 157 -131 228
-254 396 -395 535 -202 198 -396 312 -634 369 -116 28 -318 31 -448 5 -357
-69 -832 -339 -1029 -583 -74 -92 -91 -117 -133 -202 -83 -165 -115 -308 -115
-510 0 -283 62 -500 266 -936 100 -214 144 -325 144 -363 0 -126 -1651 -418
-2190 -387 -435 25 -888 83 -1297 165 -520 106 -1104 320 -1625 597 -1478 784
-2629 2130 -3126 3653 -266 817 -399 1706 -353 2375 48 714 230 1525 481 2145
575 1420 1686 2632 3055 3336 854 439 1832 691 2785 717 52 2 106 4 120 5 14
1 135 -3 270 -8z m3050 -11020 c135 -69 184 -149 715 -1175 356 -688 916
-1732 1077 -2008 l39 -67 62 42 c59 40 107 75 527 394 206 157 403 292 438
301 33 8 199 -37 474 -128 131 -44 243 -79 250 -79 6 0 136 123 287 273 282
280 395 378 484 424 28 14 103 39 167 56 96 25 135 30 235 30 145 1 188 -9
540 -123 398 -128 461 -144 590 -145 l110 0 115 57 c202 100 429 178 519 178
69 0 111 -15 195 -70 290 -189 696 -743 1020 -1390 219 -440 340 -773 390
-1080 21 -130 52 -449 76 -790 48 -675 116 -1089 256 -1565 36 -123 489 -1559
570 -1808 34 -106 44 -151 42 -190 -4 -61 -5 -63 -233 -184 -599 -321 -2882
-1473 -3223 -1627 l-103 -47 -57 50 c-143 124 -1178 1182 -1441 1471 -242 268
-277 304 -379 386 -388 313 -1008 634 -1492 774 -276 81 -638 143 -974 170
-187 15 -424 12 -641 -6 -245 -21 -653 -24 -755 -5 -155 28 -337 109 -437 195
-78 68 -133 174 -153 299 -22 139 27 256 164 393 113 112 231 190 451 299 420
207 735 285 1866 465 234 37 392 71 455 99 42 19 46 23 40 47 -4 14 -67 148
-140 297 -128 264 -1434 2837 -2134 4207 -514 1007 -606 1215 -585 1321 7 37
62 88 168 154 213 133 318 159 425 105z"/>
<path d="M9627 20475 c-161 -23 -346 -62 -472 -100 -539 -164 -904 -519 -1019
-993 -14 -57 -32 -167 -40 -245 -9 -78 -18 -159 -21 -180 l-5 -37 562 2 562 3
37 123 c51 170 89 242 174 327 108 108 218 154 418 176 177 20 384 -19 500
-93 123 -78 242 -256 267 -398 17 -97 15 -439 -4 -528 -28 -133 -139 -311
-331 -533 -44 -51 -183 -187 -310 -304 -467 -431 -588 -578 -658 -801 -45
-142 -83 -461 -63 -523 21 -66 26 -66 604 -64 283 1 516 4 519 7 3 2 22 97 43
211 21 113 46 229 54 258 38 129 132 237 421 480 99 84 220 190 269 237 179
172 415 481 491 643 72 154 152 480 162 664 7 129 -8 244 -57 438 -52 202
-108 352 -173 460 -239 393 -696 664 -1277 756 -174 27 -508 35 -653 14z"/>
<path d="M9210 15190 l0 -480 585 0 585 0 0 480 0 480 -585 0 -585 0 0 -480z"/>
</g>
</svg>
