<?xml version="1.0" standalone="no"?>
<!DOCTYPE svg PUBLIC "-//W3C//DTD SVG 20010904//EN"
 "http://www.w3.org/TR/2001/REC-SVG-20010904/DTD/svg10.dtd">
<svg version="1.0" xmlns="http://www.w3.org/2000/svg"
 width="2342.000000pt" height="2442.000000pt" viewBox="0 0 2342.000000 2442.000000"
 preserveAspectRatio="xMidYMid meet">

<g transform="translate(0.000000,2442.000000) scale(0.100000,-0.100000)"
fill="#000000" stroke="none">
<path d="M12582 23797 l-122 -122 0 -1647 0 -1647 -572 -344 c-573 -343 -959
-586 -1138 -715 -82 -59 -99 -76 -125 -127 -27 -54 -30 -69 -30 -155 0 -164
19 -186 335 -397 212 -141 495 -316 1033 -638 l497 -298 0 -896 0 -896 123
-123 122 -122 4820 0 4820 0 123 123 122 122 0 3880 0 3880 -123 123 -122 122
-4820 0 -4820 0 -123 -123z m9258 -4002 l0 -3375 -4315 0 -4315 0 0 648 c0
906 -8 992 -97 1078 -67 65 -400 283 -788 516 -273 164 -519 316 -599 370 -6
4 -5 12 3 22 16 19 354 230 626 391 367 217 687 428 760 500 46 45 62 88 77
209 7 51 12 621 15 1549 l5 1467 4314 0 4314 0 0 -3375z"/>
<path d="M17337 22673 c-4 -65 -10 -234 -13 -375 l-7 -257 -111 -37 c-170 -56
-276 -105 -383 -177 -205 -136 -373 -328 -483 -549 -92 -188 -103 -238 -104
-508 -1 -243 9 -330 51 -465 96 -307 391 -635 678 -755 211 -87 473 -126 990
-145 l170 -7 110 -111 c159 -161 215 -279 215 -447 0 -149 -48 -259 -159 -371
-119 -119 -209 -153 -444 -169 -157 -11 -377 1 -470 25 -155 40 -275 142 -356
301 -41 82 -61 164 -61 256 l0 78 -381 0 -381 0 7 -62 c19 -190 38 -305 60
-383 68 -234 184 -424 366 -601 159 -153 303 -237 537 -315 70 -23 132 -46
138 -50 7 -6 13 -98 18 -261 3 -139 9 -308 13 -375 l6 -123 367 0 368 0 6 93
c3 50 8 193 11 317 3 124 8 253 11 286 l5 62 137 47 c75 26 180 69 232 96 297
152 563 461 669 775 27 82 41 202 41 362 0 430 -100 682 -385 968 -164 165
-348 263 -595 317 -133 30 -228 41 -505 62 -456 35 -563 81 -668 291 -89 176
-94 335 -16 500 126 269 317 343 814 316 126 -7 230 -17 260 -26 93 -28 246
-179 307 -304 23 -46 37 -97 52 -192 l21 -130 372 0 c369 0 373 0 373 20 0 59
-34 306 -52 380 -59 243 -188 462 -386 652 -159 152 -273 219 -517 304 -144
49 -150 53 -156 82 -3 17 -9 151 -13 299 -4 147 -9 303 -13 346 l-6 77 -367 0
-367 0 -6 -117z"/>
<path d="M5065 23903 c-128 -15 -204 -28 -290 -49 -715 -180 -1396 -841 -1606
-1560 -62 -214 -83 -395 -76 -658 9 -349 74 -622 223 -934 161 -340 374 -594
714 -854 91 -69 176 -137 189 -151 l24 -26 -29 -38 c-34 -45 -117 -135 -304
-328 -505 -524 -780 -1089 -877 -1805 -22 -164 -25 -576 -5 -775 43 -425 123
-1056 312 -2443 l119 -877 -85 -990 c-46 -545 -107 -1262 -134 -1595 -28 -333
-75 -889 -105 -1237 l-55 -631 -166 -524 c-91 -287 -203 -640 -249 -783 -111
-345 -196 -614 -700 -2210 -235 -742 -500 -1582 -590 -1865 -334 -1052 -449
-1428 -511 -1669 -29 -117 -32 -140 -23 -175 17 -67 57 -126 147 -218 l86 -88
930 0 c938 0 1128 6 1220 36 134 45 200 183 470 981 248 733 366 1050 386
1038 23 -14 48 -299 80 -905 33 -619 55 -825 99 -926 10 -22 55 -82 101 -132
l83 -92 888 0 889 0 82 86 c99 102 132 165 147 279 6 44 27 316 46 605 20 289
49 716 65 950 35 509 161 2458 265 4115 42 660 132 2044 200 3075 69 1031 138
2090 155 2354 l30 479 184 551 c102 303 192 568 200 588 l16 38 48 -19 c152
-60 954 -435 2692 -1257 l1245 -589 995 -5 995 -5 3 -4947 2 -4946 92 -87 c92
-85 188 -145 234 -145 48 0 117 -87 199 -250 175 -349 509 -664 835 -787 105
-40 192 -52 415 -59 222 -7 418 5 515 30 191 50 396 175 582 354 166 160 248
275 379 535 l90 177 967 0 968 0 64 -132 c153 -310 290 -493 498 -666 145
-120 347 -233 478 -266 184 -47 676 -48 859 -1 33 8 119 44 190 80 324 162
586 423 746 745 98 197 114 298 106 688 -5 312 -13 356 -101 536 -176 360
-475 646 -823 786 -125 50 -216 74 -364 94 -63 9 -129 19 -146 22 l-33 5 0
1679 0 1680 323 0 c380 1 508 10 569 41 24 12 85 62 136 112 l92 91 0 1636 0
1637 -95 92 c-140 135 -140 135 -422 139 l-233 4 0 1381 0 1382 -117 117 -118
118 -2575 0 -2575 0 -118 -118 -117 -117 -2 -1380 -3 -1380 -372 -3 -373 -2 0
1378 0 1377 -123 123 -122 122 -1137 0 -1137 0 -1813 1086 c-997 598 -1818
1092 -1825 1098 -6 6 -19 79 -28 161 -61 573 -184 1024 -390 1435 -236 471
-545 836 -1047 1236 -121 97 -218 177 -216 179 1 2 46 36 99 77 346 263 560
520 749 898 199 397 254 707 215 1213 -9 126 -14 231 -11 235 6 5 759 175
1058 238 118 25 127 29 123 48 -3 12 -21 104 -41 205 -62 321 -99 437 -146
462 -47 25 -316 -24 -1068 -195 -85 -19 -174 -39 -197 -44 l-42 -10 -68 102
c-160 242 -517 533 -889 723 -353 181 -541 224 -962 222 -125 -1 -240 -4 -257
-6z m379 -743 c247 -21 429 -84 680 -237 109 -66 201 -136 223 -169 23 -36 9
-47 -120 -89 -222 -72 -2039 -463 -2217 -477 l-45 -3 1 39 c2 56 79 202 173
326 268 357 654 574 1084 610 51 4 94 8 97 8 3 1 58 -3 124 -8z m1351 -1194
c8 -13 22 -54 30 -92 48 -224 -29 -608 -177 -895 -131 -253 -400 -514 -667
-649 -297 -149 -650 -193 -961 -120 -366 87 -702 319 -928 643 -93 133 -212
401 -212 475 0 25 5 32 33 41 38 12 323 78 672 155 669 147 1231 272 1535 341
492 112 550 123 607 124 45 1 55 -3 68 -23z m-1315 -2602 c503 -172 929 -461
1271 -864 240 -283 393 -568 528 -983 38 -116 63 -247 48 -247 -31 0 -275 133
-627 343 -273 163 -483 269 -569 287 -211 45 -366 -95 -475 -430 -76 -234
-111 -493 -103 -765 6 -214 23 -315 82 -493 170 -509 545 -951 1020 -1203 122
-64 207 -120 233 -153 l19 -25 -171 -521 -171 -520 -1196 0 -1196 0 -22 138
c-128 808 -342 2470 -392 3050 -40 458 114 1019 396 1442 264 396 580 675
1020 902 93 48 171 88 171 88 1 0 61 -20 134 -46z m952 -2476 c264 -153 941
-558 2881 -1720 l2017 -1209 0 -113 c0 -116 -12 -176 -35 -176 -52 0 -1336
598 -2620 1220 -104 51 -230 112 -280 135 -49 24 -243 118 -430 210 -187 92
-396 194 -465 227 -69 33 -267 133 -440 221 -297 153 -319 166 -393 237 -227
215 -367 568 -367 928 0 61 2 112 5 112 2 0 59 -32 127 -72z m7158 -3283 l0
-185 -750 0 -750 0 0 185 0 185 750 0 750 0 0 -185z m6370 -940 l0 -1125
-2060 0 -2060 0 0 1125 0 1125 2060 0 2060 0 0 -1125z m-13661 288 c-53 -156
-314 -986 -897 -2853 -720 -2303 -742 -2371 -1889 -5827 l-698 -2103 -548 0
-548 0 7 23 c4 12 81 254 171 537 90 283 365 1150 609 1925 660 2091 720 2279
1034 3265 l288 905 66 805 c37 443 98 1167 137 1610 81 940 125 1482 135 1668
l7 132 1078 0 1078 0 -30 -87z m14411 -3288 l0 -1125 -3185 0 -3185 0 0 1125
0 1125 3185 0 3185 0 0 -1125z m-14480 423 c0 -176 -92 -1662 -275 -4453 -165
-2516 -193 -2975 -202 -3257 l-6 -208 -412 0 -412 0 -6 208 c-6 193 -25 527
-62 1122 -16 241 -28 424 -101 1465 l-36 520 217 670 c119 369 272 841 340
1050 215 662 447 1389 665 2085 214 682 264 830 281 830 5 0 9 -15 9 -32z
m13360 -4076 l0 -1779 -135 -118 c-258 -224 -362 -358 -507 -656 l-82 -169
-965 0 -966 0 -84 167 c-99 195 -168 303 -274 429 -186 222 -467 414 -694 476
-68 18 -115 21 -356 25 -382 7 -452 -5 -673 -112 -138 -67 -290 -168 -412
-274 -52 -45 -96 -81 -98 -81 -2 0 -4 871 -4 1935 l0 1935 2625 0 2625 0 0
-1778z m-3953 -2378 c347 -100 564 -374 565 -714 2 -345 -214 -619 -570 -724
-138 -40 -285 -28 -441 38 -296 125 -471 378 -472 683 -1 364 245 650 636 737
87 19 166 14 282 -20z m4861 5 c160 -42 314 -137 415 -257 62 -74 131 -216
153 -316 35 -165 2 -370 -83 -515 -109 -183 -313 -324 -531 -367 -282 -56
-634 123 -776 395 -208 398 -17 874 413 1031 172 63 255 69 409 29z"/>
</g>
</svg>
