<?xml version="1.0" standalone="no"?>
<!DOCTYPE svg PUBLIC "-//W3C//DTD SVG 20010904//EN"
 "http://www.w3.org/TR/2001/REC-SVG-20010904/DTD/svg10.dtd">
<svg version="1.0" xmlns="http://www.w3.org/2000/svg"
 width="648.000000pt" height="487.000000pt" viewBox="0 0 648.000000 487.000000"
 preserveAspectRatio="xMidYMid meet">

<g transform="translate(0.000000,487.000000) scale(0.100000,-0.100000)"
fill="#000000" stroke="none">
<path d="M590 4661 c-170 -54 -295 -177 -352 -346 l-23 -70 0 -1815 0 -1815
23 -70 c56 -170 199 -307 368 -351 82 -21 5105 -21 5187 0 189 49 339 205 381
397 15 67 16 241 14 1869 l-3 1795 -23 65 c-63 172 -192 294 -364 344 -51 15
-275 16 -2605 15 -2395 -1 -2551 -2 -2603 -18z m5183 -198 c67 -24 149 -99
184 -171 l28 -57 0 -1805 0 -1805 -28 -57 c-35 -72 -117 -147 -184 -170 -48
-17 -197 -18 -2574 -18 -2329 0 -2527 1 -2569 17 -85 31 -143 85 -187 173
l-28 55 0 1805 0 1805 28 57 c16 33 50 77 81 105 97 89 -178 80 2670 82 2384
1 2531 0 2579 -16z"/>
<path d="M1401 4163 c-13 -3 -43 -24 -67 -49 -39 -39 -44 -49 -44 -89 0 -150
169 -214 266 -101 29 33 34 47 34 88 0 51 -24 99 -64 129 -23 17 -87 28 -125
22z"/>
<path d="M1880 4163 c-35 -7 -75 -38 -99 -77 -78 -126 89 -280 212 -196 39 27
77 88 77 125 0 51 -70 144 -110 145 -8 0 -24 2 -35 4 -11 2 -31 2 -45 -1z"/>
<path d="M885 4142 c-44 -37 -65 -79 -65 -129 0 -42 5 -56 34 -89 66 -78 165
-78 231 -1 28 33 35 49 35 84 0 54 -20 94 -63 127 -28 21 -45 26 -93 26 -41
-1 -65 -6 -79 -18z"/>
<path d="M697 3562 c-22 -24 -21 -38 3 -62 20 -20 33 -20 2513 -20 2403 0
2495 1 2510 18 20 22 22 53 5 70 -9 9 -581 12 -2513 12 -2411 0 -2503 -1
-2518 -18z"/>
</g>
</svg>
