<?xml version="1.0" standalone="no"?>
<!DOCTYPE svg PUBLIC "-//W3C//DTD SVG 20010904//EN"
 "http://www.w3.org/TR/2001/REC-SVG-20010904/DTD/svg10.dtd">
<svg version="1.0" xmlns="http://www.w3.org/2000/svg"
 width="2450.000000pt" height="2837.000000pt" viewBox="0 0 2450.000000 2837.000000"
 preserveAspectRatio="xMidYMid meet">

<g transform="translate(0.000000,2837.000000) scale(0.100000,-0.100000)"
fill="#000000" stroke="none">
<path d="M20990 27939 c-472 -7 -1462 -26 -2640 -49 -278 -6 -975 -19 -1550
-30 -2309 -44 -3992 -80 -4665 -100 -1096 -32 -2942 -79 -4735 -120 -1901 -43
-4425 -115 -4975 -140 -479 -23 -562 -46 -601 -173 -46 -150 -42 -1129 16
-4132 34 -1761 74 -3166 96 -3411 l5 -60 115 -58 c133 -66 544 -258 719 -336
66 -29 123 -56 127 -59 4 -4 -153 -184 -350 -402 -196 -217 -411 -455 -476
-528 l-120 -133 3 -451 c4 -937 27 -1989 47 -2197 10 -110 65 -180 166 -214
150 -50 339 -52 1633 -22 611 14 1423 33 1805 41 382 8 900 19 1150 25 250 5
766 17 1145 25 1270 28 1985 45 2650 65 363 11 703 20 755 21 l95 2 12 -74
c24 -147 34 -569 43 -1914 6 -778 14 -1407 20 -1455 13 -112 25 -143 65 -179
94 -82 231 -52 256 56 22 102 29 537 29 1994 l0 1546 78 24 c77 24 80 24 525
23 261 0 451 -4 456 -10 4 -5 16 -463 25 -1019 33 -1971 53 -2631 85 -2785 21
-103 199 -106 262 -4 40 66 44 154 43 1034 -1 459 -7 1273 -14 1808 -6 536
-10 976 -8 978 5 4 530 29 828 39 273 9 961 24 1845 40 1968 37 5136 111 5770
135 645 25 858 53 923 123 12 12 31 45 44 72 l23 50 -1 750 c-1 413 -9 1065
-17 1450 -24 996 -42 1922 -72 3580 -30 1647 -43 2125 -66 2370 -22 236 -56
352 -116 387 -15 9 -84 26 -153 38 -152 26 -185 42 -184 91 1 51 45 113 257
369 l187 225 0 525 c0 889 -24 1739 -51 1880 -26 129 -106 239 -192 265 -108
33 -395 38 -1317 24z m1109 -394 c45 -45 57 -278 71 -1352 l11 -812 -174 -204
c-328 -383 -507 -618 -507 -665 0 -34 26 -78 63 -106 51 -39 163 -79 407 -146
124 -34 226 -63 227 -64 3 -2 31 -1091 43 -1671 43 -2054 117 -6372 109 -6379
-5 -5 -653 -33 -1059 -46 -783 -25 -2977 -75 -6365 -145 -2787 -58 -3986 -84
-4730 -105 -1215 -34 -5370 -116 -7362 -146 l-452 -7 -10 27 c-25 64 -32 321
-38 1306 l-6 1035 353 385 c376 411 525 581 616 700 63 84 124 201 124 240 0
38 -34 86 -82 114 -52 30 -366 167 -738 322 -151 64 -278 118 -282 122 -10 11
-37 522 -48 922 -21 741 -44 1877 -85 4210 -8 470 -20 1040 -25 1265 -6 226
-10 488 -10 583 0 157 2 172 18 172 9 0 118 7 242 15 296 19 623 32 1315 50
1162 31 3540 83 5660 125 477 9 685 14 1945 40 1152 24 2572 57 3055 70 669
19 2150 50 4245 90 2271 43 2901 57 3085 70 66 4 175 7 242 6 108 -1 125 -3
142 -21z"/>
<path d="M20527 23590 c-111 -18 -215 -52 -333 -109 -190 -92 -319 -201 -379
-320 -26 -52 -44 -173 -45 -297 0 -123 11 -196 37 -252 59 -123 329 -314 812
-572 379 -202 482 -292 526 -454 57 -210 -67 -372 -342 -448 -105 -29 -381
-32 -518 -5 -218 43 -353 87 -408 133 -39 33 -86 30 -104 -6 -7 -14 -13 -55
-13 -91 0 -190 83 -262 350 -305 130 -21 500 -30 615 -15 266 35 457 119 587
259 70 76 109 144 141 247 65 209 35 375 -98 543 -123 154 -294 270 -715 485
-416 213 -474 254 -521 373 -33 84 -34 229 -1 295 78 157 253 254 482 266 174
9 473 -28 615 -77 80 -27 103 -26 111 5 13 51 -1 198 -23 247 -20 43 -26 48
-75 62 -29 9 -82 20 -118 26 -85 15 -509 22 -583 10z"/>
<path d="M18750 23529 c-551 -8 -1187 -26 -1272 -35 l-58 -7 0 -118 0 -119
405 0 c316 0 407 -3 410 -12 11 -35 48 -1288 52 -1812 l6 -599 106 7 c58 4
127 9 154 13 l47 6 0 211 c0 116 -7 643 -15 1171 -8 528 -15 972 -15 988 l0
27 284 0 c299 0 414 9 483 40 63 28 78 58 78 159 l0 86 -90 1 c-49 1 -308 -2
-575 -7z"/>
<path d="M16170 23509 c-344 -42 -641 -270 -715 -549 -19 -72 -19 -210 0 -284
21 -82 76 -182 136 -250 81 -90 271 -208 669 -416 286 -149 401 -222 477 -304
71 -75 93 -134 93 -245 0 -265 -171 -405 -510 -418 -231 -9 -411 20 -659 107
-80 28 -154 50 -165 48 -26 -4 -34 -33 -35 -133 -1 -138 32 -181 173 -224 97
-30 329 -68 461 -76 236 -15 498 34 690 129 165 82 255 166 333 311 l37 70 -1
165 c0 190 -15 265 -68 345 -101 153 -293 290 -701 500 -319 164 -407 219
-488 300 -77 79 -92 120 -92 255 0 123 12 174 51 226 32 43 148 120 219 145
86 30 276 42 454 29 180 -13 269 -31 393 -81 55 -22 104 -36 110 -33 20 13 4
202 -23 269 -23 57 -27 61 -74 77 -28 9 -84 21 -125 28 -98 15 -543 21 -640 9z"/>
<path d="M12457 22583 c-5 -866 -10 -999 -43 -1153 -25 -117 -57 -175 -148
-266 -90 -90 -159 -129 -293 -166 -66 -18 -106 -22 -258 -22 -173 -1 -183 0
-260 27 -106 38 -173 77 -247 146 -76 69 -132 155 -158 239 -22 71 -44 266
-60 537 -10 168 -50 1297 -50 1413 l0 52 -146 0 -146 0 6 -577 c12 -1038 27
-1338 77 -1499 46 -148 130 -285 236 -384 170 -159 371 -221 714 -221 311 0
504 44 682 158 91 58 149 113 220 208 79 106 143 240 162 338 26 136 37 436
38 1002 1 435 -3 594 -16 760 -10 116 -20 225 -23 243 l-5 32 -138 0 -139 0
-5 -867z"/>
<path d="M13503 22283 c5 -1131 10 -1322 38 -1425 24 -89 66 -93 804 -79 325
7 614 14 643 17 l52 5 0 120 0 119 -605 0 -605 0 2 478 3 477 440 6 c360 4
450 8 495 21 76 23 97 49 105 140 4 41 5 85 3 98 l-3 25 -516 3 -516 2 -6 73
c-4 39 -10 232 -13 428 -7 345 -6 357 12 362 24 7 273 23 679 42 176 8 339 18
363 21 l42 5 0 115 0 114 -711 0 -711 0 5 -1167z"/>
<path d="M8605 23404 c-235 -33 -347 -65 -491 -137 -354 -179 -578 -483 -665
-903 -30 -144 -37 -440 -15 -591 47 -318 184 -587 403 -793 95 -89 223 -179
324 -229 121 -59 156 -63 681 -68 l477 -5 193 -131 c214 -145 305 -193 394
-207 122 -20 392 -7 418 20 8 9 1 20 -27 43 -75 62 -209 154 -426 292 -121 77
-222 145 -224 151 -9 21 30 89 100 174 138 167 224 320 288 512 133 404 102
843 -87 1210 -149 291 -387 501 -676 598 -138 46 -247 61 -452 65 -102 2 -198
1 -215 -1z m469 -298 c233 -60 395 -182 530 -399 190 -304 238 -757 119 -1115
-79 -238 -235 -434 -436 -546 -82 -46 -252 -102 -356 -117 -111 -16 -313 -6
-411 20 -263 69 -441 197 -584 418 -183 284 -235 677 -136 1033 26 92 103 256
161 341 136 202 379 342 674 389 108 17 328 5 439 -24z"/>
<path d="M5494 23083 c4 -137 14 -457 22 -713 8 -256 17 -745 21 -1087 l6
-623 749 0 748 0 0 140 0 139 -162 -5 c-90 -4 -349 -11 -576 -18 l-413 -11 -9
35 c-32 123 -54 473 -48 765 l3 160 285 8 c157 4 386 11 510 15 l225 7 7 80
c4 44 9 104 12 133 l6 52 -526 0 -527 0 6 173 c4 94 10 296 13 448 l7 276 251
6 c138 4 387 10 554 14 l302 6 0 124 0 123 -736 0 -737 0 7 -247z"/>
<path d="M3088 23284 c-11 -11 -10 -1051 2 -1689 9 -465 26 -824 46 -942 l5
-33 139 0 140 0 0 565 0 565 133 0 c304 0 402 -31 541 -173 106 -107 175 -200
451 -614 l228 -343 121 1 c116 0 210 9 222 22 12 12 -11 54 -120 215 -260 387
-531 746 -680 900 -60 62 -107 114 -105 115 2 2 33 14 68 27 184 67 412 288
474 459 31 86 35 277 8 399 -30 137 -78 229 -164 317 -114 114 -242 166 -487
195 -111 14 -1011 26 -1022 14z m717 -264 c257 -23 405 -56 477 -106 96 -67
158 -204 158 -348 0 -142 -44 -256 -137 -356 -120 -130 -190 -148 -647 -170
-120 -6 -220 -9 -223 -7 -6 6 -31 161 -44 272 -13 115 -13 478 1 575 14 99 26
129 59 136 14 3 31 7 36 9 22 7 217 4 320 -5z"/>
<path d="M11996 11429 c-73 -12 -130 -37 -486 -210 -179 -87 -352 -167 -386
-178 -92 -31 -176 -41 -330 -41 -417 0 -569 -55 -705 -256 -87 -129 -115 -142
-449 -199 -400 -69 -583 -137 -709 -263 -119 -120 -181 -273 -203 -509 -21
-218 19 -492 94 -643 56 -112 467 -510 528 -510 25 0 31 -24 14 -49 -9 -12
-48 -43 -88 -70 -138 -94 -217 -205 -251 -356 -22 -98 -31 -388 -15 -512 31
-246 101 -385 295 -579 100 -100 176 -157 269 -199 40 -18 76 -41 80 -50 19
-50 -5 -110 -112 -284 -79 -127 -104 -216 -110 -381 -3 -95 1 -161 12 -225 63
-366 271 -708 476 -786 94 -36 229 -66 370 -84 74 -9 150 -21 167 -26 45 -14
70 -50 78 -112 24 -174 123 -361 274 -520 99 -104 185 -169 296 -223 224 -108
280 -103 850 87 959 320 1139 447 1567 1110 214 332 301 497 334 634 27 116
12 191 -71 363 -56 115 -62 132 -47 132 5 0 112 -68 237 -150 321 -211 374
-234 443 -191 35 23 72 75 72 104 0 34 -76 96 -205 167 -71 40 -159 93 -195
118 -87 61 -192 167 -219 221 -21 41 -22 47 -10 107 11 54 10 75 -4 138 -27
126 -86 227 -227 390 -33 39 -63 80 -66 93 -4 14 2 39 16 65 84 159 95 202 95
363 0 150 -14 186 -117 292 -135 139 -308 235 -520 287 -141 35 -245 46 -431
46 l-159 0 71 80 c134 152 189 320 160 486 -7 38 -13 94 -13 124 -1 48 2 55
20 58 43 6 154 -87 439 -368 160 -157 328 -314 374 -348 136 -102 381 -207
573 -246 413 -84 939 10 1154 206 91 84 117 181 75 275 -28 61 -58 77 -135 71
-52 -5 -91 -18 -212 -76 -174 -83 -283 -116 -424 -132 -160 -18 -367 9 -560
72 -169 55 -242 112 -600 462 -280 276 -391 372 -465 405 -51 22 -54 34 -24
91 29 56 36 148 15 203 -25 67 -59 82 -186 81 -122 -1 -222 -19 -605 -109
-348 -82 -417 -95 -550 -102 -172 -9 -306 20 -590 127 -312 117 -497 243 -563
384 -37 77 -23 248 23 286 30 25 143 40 525 70 230 18 331 50 685 217 357 169
476 208 621 201 101 -4 73 7 354 -140 275 -144 448 -190 1190 -313 925 -153
1277 -277 1630 -573 219 -184 694 -712 1039 -1157 252 -325 421 -562 791
-1110 134 -198 286 -418 338 -490 669 -918 1387 -1532 2842 -2427 600 -369
1157 -694 1248 -728 68 -26 110 -22 158 15 39 30 58 63 68 118 24 132 -36 183
-594 504 -499 288 -845 503 -1375 858 -552 369 -739 509 -1065 794 -484 424
-761 758 -1370 1656 -335 494 -571 817 -879 1200 -479 597 -928 1065 -1186
1236 -98 66 -331 175 -475 224 -326 110 -689 187 -1430 300 -384 59 -474 87
-805 253 -104 52 -215 103 -245 114 -122 42 -359 60 -494 37z m-1960 -1316
c171 -257 456 -446 909 -603 245 -84 453 -126 694 -140 287 -16 456 -70 569
-180 153 -148 93 -359 -134 -473 -420 -211 -1400 -232 -1978 -42 -143 46 -424
184 -558 273 -354 235 -497 515 -433 847 36 188 133 290 321 339 98 25 373 62
486 64 l66 2 58 -87z m189 -1868 c72 -9 229 -29 351 -46 446 -59 485 -61 1489
-69 672 -5 942 -10 975 -19 108 -29 261 -144 272 -206 17 -88 -94 -243 -244
-338 -221 -142 -540 -250 -1373 -467 -192 -50 -376 -98 -407 -107 l-58 -16 0
-113 c0 -63 5 -124 11 -138 37 -81 221 -65 748 65 264 65 611 165 776 224 462
165 471 167 561 116 65 -38 150 -131 165 -182 22 -73 -28 -164 -193 -349 -233
-261 -737 -656 -1063 -835 -254 -140 -295 -179 -295 -282 0 -226 153 -236 505
-34 220 127 426 273 719 508 149 121 226 173 284 195 27 10 35 10 48 -3 13
-14 14 -23 4 -60 -25 -90 -147 -308 -307 -547 -276 -411 -430 -562 -714 -696
-231 -109 -830 -309 -1083 -361 -76 -15 -80 -15 -122 5 -89 44 -273 240 -331
353 -39 78 -30 129 54 295 57 114 68 144 71 197 5 82 -14 120 -75 147 -54 24
-141 21 -189 -6 -89 -48 -94 -49 -279 -54 -179 -4 -317 6 -398 30 -29 8 -61
31 -103 73 -141 139 -247 474 -215 675 30 183 159 315 420 430 147 64 150 66
173 117 15 34 18 56 13 94 -13 94 -51 118 -337 215 -201 68 -316 119 -413 182
-128 83 -214 194 -256 328 -22 72 -24 96 -24 269 0 222 10 270 65 324 41 41
113 79 185 98 67 17 417 10 590 -12z"/>
<path d="M10460 9461 c-129 -81 -204 -252 -204 -466 0 -128 22 -201 76 -252
47 -44 70 -48 105 -19 41 34 53 80 63 236 11 169 25 213 100 323 79 117 79
159 0 191 -57 23 -88 20 -140 -13z"/>
<path d="M10755 7910 c-59 -13 -95 -40 -125 -93 -99 -171 -105 -404 -15 -592
38 -80 137 -202 190 -235 44 -27 69 -19 110 34 36 47 32 65 -48 231 l-62 130
1 95 c1 66 11 137 33 235 35 157 36 169 19 182 -19 15 -69 21 -103 13z"/>
<path d="M11288 6402 c-70 -36 -135 -178 -145 -322 -14 -193 93 -378 268 -464
156 -76 289 -65 289 25 0 39 -64 109 -144 156 -92 53 -132 89 -155 136 -27 56
-26 108 4 242 30 132 32 196 8 217 -28 24 -86 29 -125 10z"/>
<path d="M16403 6815 c-18 -8 -80 -59 -138 -114 -241 -229 -560 -384 -950
-461 -345 -68 -441 -122 -357 -203 50 -48 96 -61 217 -60 364 2 931 249 1232
536 107 103 153 163 153 202 0 34 -33 81 -70 100 -35 18 -46 18 -87 0z"/>
<path d="M13186 4695 c-44 -15 -91 -57 -113 -99 -25 -49 -32 -214 -22 -536 48
-1553 60 -1971 69 -2335 5 -231 12 -480 15 -552 l6 -133 -551 0 -550 0 0 133
c0 126 -7 481 -30 1532 -21 930 -41 1210 -95 1315 -21 40 -63 60 -129 60 -80
0 -111 -30 -134 -130 -15 -68 -17 -152 -16 -920 2 -831 15 -1579 34 -1855 19
-269 47 -388 104 -444 53 -51 106 -55 796 -55 702 -1 701 -1 814 75 39 27 81
57 94 68 l22 19 0 459 c0 892 -59 2725 -100 3111 -18 169 -37 225 -90 262 -46
32 -81 39 -124 25z"/>
<path d="M13970 4084 c-19 -8 -56 -36 -82 -62 -55 -53 -60 -80 -27 -152 77
-172 294 -214 985 -191 445 15 730 14 828 -4 122 -22 177 -53 291 -170 109
-110 165 -193 300 -445 192 -358 403 -621 879 -1094 390 -387 676 -646 793
-716 93 -57 182 -50 251 20 41 41 57 90 43 133 -8 23 -166 187 -538 557 -289
289 -573 577 -631 639 -230 252 -361 436 -516 724 -203 378 -308 491 -626 676
l-104 60 -701 -6 c-720 -6 -913 0 -1019 32 -61 18 -81 18 -126 -1z"/>
</g>
</svg>
